# xmcd CD database file
#
# Track frame offsets:
#	150
#	24618
#	48613
#	72731
#	95395
#	119648
#	145593
#	163711
#	188381
#	208401
#
# Disc length: 3063 seconds
#
# Revision: 0
# Processed by: cddbd v1.4PL0 Copyright (c) Steve Scherf et al.
# Submitted via: CDex 1.50Beta6
#
DISCID=950bf50a
DTITLE=Mystery Man - Bedroom Workout
DYEAR=2002
DGENRE=Blues
TTITLE0=bedroom workout
TTITLE1=holdin' on to my woman
TTITLE2=come out to party
TTITLE3=take it to the bank
TTITLE4=body dance
TTITLE5=it ain't over
TTITLE6=u give me that buzz 
TTITLE7=a woman's touch
TTITLE8=when you give me love
TTITLE9=u make it alright
EXTD=YEAR: 2002
EXTT0=
EXTT1=
EXTT2=
EXTT3=
EXTT4=
EXTT5=
EXTT6=
EXTT7=
EXTT8=
EXTT9=
PLAYORDER=
